<svg xmlns="http://www.w3.org/2000/svg" viewBox="0 0 32 32">
  <symbol id="icn-assistant" viewBox="0 0 32 32">
    <path fill-rule="evenodd" clip-rule="evenodd" d="M6.80462 14.3087C5.68738 14.3087 4.81228 15.5828 4.81228 17.2081C4.81228 18.8333 5.68738 20.1074 6.80462 20.1074H8.79696V14.3087H6.80462ZM23.2031 20.1074H25.1954C26.3127 20.1074 27.1878 18.8333 27.1878 17.2081C27.1878 15.5828 26.3127 14.3087 25.1954 14.3087H23.2031V20.1074ZM16.7663 28C15.7517 28 14.9272 27.1334 14.9272 26.0671C14.9272 25.0008 15.7517 24.1342 16.7663 24.1342C17.2889 24.1342 17.7885 24.3694 18.138 24.7785L18.2744 24.9396H19.0652C19.9372 24.9396 20.8966 24.036 21.0391 23.0808L21.056 22.8827L21.0575 12.0537L23.7272 12.0553L23.4468 11.3772C22.1533 8.26524 19.2291 6.25503 16 6.25503C12.7709 6.25503 9.84676 8.26524 8.55328 11.3772L8.27282 12.0553L10.9425 12.0537V22.3624H6.80462C4.52263 22.3624 2.66669 20.0494 2.66669 17.2081C2.66669 14.8387 3.95558 12.7817 5.79925 12.2067L6.04293 12.131L6.1119 11.8749C7.34715 7.23758 11.413 4 16 4C20.587 4 24.6544 7.23758 25.8897 11.8765L25.9586 12.1326L26.2023 12.2083C28.046 12.7817 29.3334 14.837 29.3334 17.2081C29.3334 20.0494 27.4774 22.3624 25.1954 22.3624H23.2031V22.8456C23.2031 25.0169 21.3763 27.0448 19.292 27.185L19.0483 27.1946L18.2713 27.1962L18.1364 27.3573C17.7885 27.7648 17.2889 28 16.7663 28Z"/>
  </symbol>
  <use href="#icn-assistant"></use>
</svg>