<svg xmlns="http://www.w3.org/2000/svg" viewBox="0 0 32 32">
		<symbol id="icn-small-external-link" viewBox="0 0 32 32">
			<path d="M25.042 5h-5.542c-0.828 0-1.5-0.672-1.5-1.5s0.672-1.5 1.5-1.5h9c0.020 0 0.039 0 0.059 0.001 0.373-0.015 0.751 0.12 1.035 0.404s0.419 0.663 0.404 1.035c0.001 0.020 0.001 0.039 0.001 0.059v9c0 0.828-0.672 1.5-1.5 1.5s-1.5-0.672-1.5-1.5v-5.542l-12.636 12.636c-0.541 0.541-1.417 0.541-1.958 0s-0.541-1.417 0-1.958l12.636-12.636zM23.176 17.294c0-0.78 0.632-1.412 1.412-1.412s1.412 0.632 1.412 1.412v8.471c0 2.339-1.896 4.235-4.235 4.235h-15.529c-2.339 0-4.235-1.896-4.235-4.235v-15.529c0-2.339 1.896-4.235 4.235-4.235h8.471c0.78 0 1.412 0.632 1.412 1.412s-0.632 1.412-1.412 1.412h-8.471c-0.78 0-1.412 0.632-1.412 1.412v15.529c0 0.78 0.632 1.412 1.412 1.412h15.529c0.78 0 1.412-0.632 1.412-1.412v-8.471z"/>
		</symbol>
  <use href="#icn-small-external-link"></use>
</svg>

